<svg width="22" height="22" viewBox="0 0 22 22" fill="none" xmlns="http://www.w3.org/2000/svg">
<path d="M13.5299 8.47003L8.46992 13.53C7.81992 12.88 7.41992 11.99 7.41992 11C7.41992 9.01999 9.01988 7.42003 10.9999 7.42003C11.9899 7.42003 12.8799 7.82003 13.5299 8.47003Z" stroke="#98A2B3" stroke-width="2" stroke-linecap="round" stroke-linejoin="round"/>
<path d="M16.8198 4.76997C15.0699 3.44998 13.0699 2.72998 10.9999 2.72998C7.46983 2.72998 4.17984 4.80997 1.88984 8.40997C0.989844 9.81999 0.989844 12.19 1.88984 13.6C2.67984 14.84 3.59984 15.91 4.59984 16.77" stroke="#98A2B3" stroke-width="2" stroke-linecap="round" stroke-linejoin="round"/>
<path d="M7.41992 18.5301C8.55992 19.0101 9.76988 19.2701 10.9999 19.2701C14.5299 19.2701 17.8199 17.1901 20.1099 13.5901C21.0099 12.1801 21.0099 9.81009 20.1099 8.40004C19.7799 7.88004 19.4199 7.39005 19.0499 6.93005" stroke="#98A2B3" stroke-width="2" stroke-linecap="round" stroke-linejoin="round"/>
<path d="M14.5099 11.7C14.2499 13.11 13.0999 14.26 11.6899 14.52" stroke="#98A2B3" stroke-width="2" stroke-linecap="round" stroke-linejoin="round"/>
<path d="M8.46999 13.53L1 21" stroke="#98A2B3" stroke-width="2" stroke-linecap="round" stroke-linejoin="round"/>
<path d="M21.0003 1L13.5303 8.46999" stroke="#98A2B3" stroke-width="2" stroke-linecap="round" stroke-linejoin="round"/>
</svg>
