<svg width="110" height="110" viewBox="0 0 110 110" fill="none" xmlns="http://www.w3.org/2000/svg">
<path d="M103.125 48.125H61.875V6.875C61.875 5.05164 61.1507 3.30295 59.8614 2.01364C58.572 0.72433 56.8234 0 55 0C53.1766 0 51.428 0.72433 50.1386 2.01364C48.8493 3.30295 48.125 5.05164 48.125 6.875V48.125H6.875C5.05164 48.125 3.30295 48.8493 2.01364 50.1386C0.72433 51.428 0 53.1766 0 55C0 56.8234 0.72433 58.572 2.01364 59.8614C3.30295 61.1507 5.05164 61.875 6.875 61.875H48.125V103.125C48.125 104.948 48.8493 106.697 50.1386 107.986C51.428 109.276 53.1766 110 55 110C56.8234 110 58.572 109.276 59.8614 107.986C61.1507 106.697 61.875 104.948 61.875 103.125V61.875H103.125C104.948 61.875 106.697 61.1507 107.986 59.8614C109.276 58.572 110 56.8234 110 55C110 53.1766 109.276 51.428 107.986 50.1386C106.697 48.8493 104.948 48.125 103.125 48.125Z" fill="black"/>
</svg>
